<?xml version="1.0" standalone="no"?>
<!DOCTYPE svg PUBLIC "-//W3C//DTD SVG 20010904//EN"
 "http://www.w3.org/TR/2001/REC-SVG-20010904/DTD/svg10.dtd">
<svg version="1.0" xmlns="http://www.w3.org/2000/svg"
 width="580.000000pt" height="489.000000pt" viewBox="0 0 580.000000 489.000000"
 preserveAspectRatio="xMidYMid meet">
<metadata>
Created by potrace 1.16, written by Peter Selinger 2001-2019
</metadata>
<g transform="translate(0.000000,489.000000) scale(0.100000,-0.100000)"
fill="#000000" stroke="none">
<path d="M255 4800 c-85 -9 -135 -32 -135 -64 0 -13 -5 -26 -12 -28 -9 -3 -12
-361 -13 -1554 -1 -1582 0 -1633 35 -1668 5 -5 10 -20 10 -33 0 -13 4 -31 9
-41 27 -55 64 -141 78 -181 8 -25 26 -59 39 -74 13 -16 24 -34 24 -41 0 -7 9
-21 20 -31 11 -10 20 -22 20 -27 0 -26 131 -175 165 -188 14 -5 25 -16 25 -24
0 -18 148 -157 214 -201 86 -58 160 -107 186 -125 54 -37 289 -149 355 -170
39 -13 75 -26 80 -30 18 -12 129 -49 200 -66 39 -9 80 -23 93 -31 25 -15 154
-50 187 -50 11 0 45 -4 75 -8 30 -4 70 -8 88 -9 18 -1 36 -6 40 -12 9 -13 125
-36 181 -35 24 1 50 -4 57 -10 8 -6 14 -8 14 -4 0 4 7 2 15 -5 12 -10 18 -10
31 1 12 9 17 10 23 1 6 -11 20 -12 106 -12 17 0 75 -3 130 -6 362 -24 1103 7
1150 48 5 4 26 8 46 8 21 0 40 4 43 9 3 4 31 11 63 14 119 13 195 28 266 53
39 14 109 37 154 50 46 13 118 40 160 60 91 41 369 190 398 213 11 9 31 22 44
30 53 30 267 208 344 286 107 108 115 118 161 195 21 36 46 74 56 85 9 11 30
47 45 80 16 33 33 66 39 73 5 7 20 37 32 65 12 29 38 89 58 135 20 45 44 119
52 165 9 45 20 105 26 132 5 31 9 610 10 1498 0 1394 -1 1449 -18 1469 -37 40
-73 50 -213 57 -164 9 -5170 10 -5256 1z m709 -513 c13 -10 18 -30 19 -92 1
-44 8 -89 14 -100 11 -19 12 -19 31 -1 17 15 20 29 19 95 -1 88 4 101 42 101
l27 0 -1 -105 c-1 -101 -2 -105 -30 -135 -24 -25 -36 -30 -78 -30 -26 0 -57
-5 -68 -10 -15 -8 -19 -7 -19 5 0 8 5 15 12 15 6 0 3 9 -7 21 -16 17 -19 34
-16 111 3 90 13 138 29 138 4 0 16 -6 26 -13z m518 -56 c1 -28 6 -51 11 -51 6
0 6 -5 0 -12 -5 -7 -10 -47 -11 -88 -2 -41 -6 -78 -10 -82 -4 -4 -21 -3 -38 4
-29 11 -30 13 -28 67 1 31 3 58 4 61 2 3 3 28 5 55 3 87 5 92 28 102 30 15 38
4 39 -56z m197 53 c47 -19 68 -47 65 -91 -1 -18 -2 -34 -3 -35 -1 -2 -4 -20
-6 -41 -6 -60 -12 -71 -54 -98 -34 -22 -47 -25 -90 -19 -28 3 -53 8 -55 11 -8
8 -12 219 -4 219 4 0 8 11 8 25 0 25 6 28 70 38 14 3 26 5 27 6 2 0 20 -6 42
-15z m534 -6 c18 -12 35 -27 39 -32 4 -6 5 -48 3 -94 -3 -80 -6 -87 -36 -118
-30 -31 -38 -34 -88 -34 -31 0 -62 4 -69 8 -12 8 -19 181 -9 239 5 32 12 37
70 44 29 3 54 7 55 8 2 0 18 -9 35 -21z m602 -34 c9 -14 14 -28 11 -32 -3 -5
-8 -41 -11 -81 -5 -58 -11 -78 -31 -99 -22 -25 -30 -27 -94 -25 -39 1 -74 4
-78 7 -12 7 5 201 19 231 29 58 146 57 184 -1z m-1565 14 c31 -33 45 -31 52 7
4 24 27 30 51 12 18 -13 32 -101 19 -122 -3 -5 -7 -35 -9 -65 -4 -72 -8 -80
-37 -80 -14 0 -28 -5 -32 -11 -4 -7 -9 -8 -17 0 -7 7 -6 15 3 26 10 12 10 21
2 40 -14 30 -52 34 -52 6 0 -47 -33 -69 -58 -38 -11 13 -9 228 3 247 12 20 46
10 75 -22z m695 12 c10 -11 14 -20 10 -20 -4 0 -1 -8 8 -18 9 -9 18 -34 20
-55 2 -20 6 -40 10 -43 3 -3 3 -12 1 -18 -3 -7 -1 -31 4 -54 7 -29 6 -46 -2
-56 -14 -20 -53 -10 -61 15 -5 15 -16 19 -51 19 -37 0 -44 -3 -44 -19 0 -28
-17 -35 -51 -21 -32 14 -34 21 -18 52 6 12 13 37 15 56 6 74 17 114 30 119 8
3 14 13 14 24 0 40 83 54 115 19z m614 11 c19 -12 6 -41 -18 -41 -30 0 -51
-11 -51 -26 0 -8 7 -14 15 -14 17 0 56 -40 50 -50 -3 -4 -20 -11 -39 -14 -24
-5 -33 -11 -30 -20 3 -8 0 -17 -5 -21 -20 -11 -1 -25 34 -25 25 0 37 -6 46
-22 18 -33 -10 -48 -79 -41 -81 7 -85 9 -79 41 3 15 2 34 -3 42 -5 8 -5 19 1
26 5 6 8 35 6 63 -3 28 0 54 4 57 5 3 9 14 9 24 0 10 8 21 18 23 31 8 107 7
121 -2z m362 -23 c4 -15 5 -58 4 -97 -4 -76 8 -101 41 -83 15 8 18 26 20 96 2
87 13 116 41 116 8 0 19 -13 24 -30 6 -16 14 -30 17 -30 3 0 22 11 42 25 53
37 87 40 140 13 34 -17 45 -29 44 -45 0 -14 7 -25 18 -29 24 -7 33 -1 51 39 9
18 27 39 41 46 21 12 30 11 60 -3 24 -11 36 -24 36 -37 0 -11 4 -28 9 -38 5
-9 12 -39 15 -66 3 -28 11 -63 18 -79 10 -25 9 -31 -7 -42 -25 -19 -32 -18
-52 6 -22 25 -94 28 -113 5 -21 -25 -54 -15 -58 18 -2 15 -6 27 -9 27 -13 0
-61 -55 -56 -66 8 -22 -79 -4 -122 25 -38 26 -40 29 -40 81 0 42 -4 55 -15 55
-9 0 -16 -10 -17 -25 -10 -112 -16 -119 -130 -134 -36 -5 -43 -3 -43 11 0 9
-6 24 -14 32 -15 17 -26 174 -13 187 4 4 7 15 7 25 0 38 51 35 61 -3z m812 3
c13 -13 1 -27 -28 -33 -18 -3 -20 -12 -22 -88 -3 -114 -8 -130 -38 -130 -14 0
-26 7 -29 18 -7 24 -8 99 -2 149 5 39 3 42 -25 52 -26 9 -29 13 -20 30 6 10
16 21 22 23 21 7 131 -10 142 -21z m165 6 c42 6 42 6 62 -42 11 -25 20 -56 20
-68 0 -27 15 -53 23 -40 3 5 13 32 22 59 24 70 42 94 69 94 23 0 24 -4 23 -45
-1 -27 -7 -47 -16 -50 -8 -3 -11 -14 -8 -26 3 -12 0 -22 -9 -26 -8 -3 -14 -13
-14 -23 0 -10 -7 -30 -14 -46 -17 -31 -13 -43 12 -45 9 -1 -14 -7 -53 -14 -71
-13 -98 -7 -77 18 8 10 7 20 -3 41 -8 16 -15 37 -15 47 0 10 -4 20 -10 24 -5
3 -7 12 -3 20 3 9 0 22 -7 30 -7 8 -10 21 -7 29 8 20 -17 50 -35 43 -15 -5
-20 -51 -20 -152 0 -11 -2 -36 -5 -57 -4 -32 -8 -37 -40 -43 -38 -7 -56 1 -33
15 10 6 15 38 17 127 3 129 12 150 58 133 12 -5 41 -6 63 -3z m383 -7 c10 -6
19 -19 19 -30 0 -10 4 -21 9 -24 5 -3 12 -23 15 -43 8 -41 32 -117 47 -146 10
-18 8 -20 -40 -31 -32 -7 -56 11 -40 30 15 19 -6 26 -62 22 -34 -2 -44 -7 -43
-20 2 -19 -46 -40 -64 -29 -10 6 -2 72 15 111 3 8 5 21 4 28 -1 8 3 20 9 27 7
8 9 18 6 23 -3 6 1 15 9 22 8 7 15 21 15 31 0 34 60 51 101 29z m-2172 -594
c7 -8 23 -17 37 -20 35 -9 20 -27 -16 -19 -22 4 -39 -1 -65 -18 -19 -13 -35
-27 -35 -30 0 -4 12 -14 26 -24 23 -15 33 -16 65 -6 22 7 39 16 39 21 0 6 9
10 20 10 13 0 20 -7 20 -18 0 -11 -9 -27 -20 -37 -26 -24 -25 -31 5 -51 25
-16 27 -16 68 13 58 41 74 45 93 26 16 -16 15 -19 -15 -44 -21 -17 -29 -31
-25 -42 3 -10 2 -17 -4 -17 -6 0 -12 4 -14 10 -4 13 -54 -14 -51 -28 6 -28
-51 -2 -129 57 -14 12 -31 21 -37 21 -6 0 -30 15 -54 33 -23 17 -53 39 -67 48
l-24 16 33 28 c41 38 113 85 127 85 6 0 17 -6 23 -14z m1337 -105 c5 -5 56
-23 114 -39 161 -47 182 -57 178 -90 -3 -26 -5 -27 -58 -24 -48 2 -59 -1 -88
-26 l-33 -28 20 -26 c19 -24 20 -28 5 -57 -8 -17 -18 -31 -21 -31 -14 0 -43
34 -43 51 0 10 -10 26 -22 36 -23 18 -68 77 -68 88 0 3 -18 24 -40 46 -22 23
-40 48 -40 55 0 7 17 22 38 33 43 23 45 24 58 12z m-742 -96 c27 -19 54 -35
60 -35 6 0 29 -14 50 -30 48 -36 56 -37 93 -6 52 43 72 50 94 30 10 -9 19 -20
19 -24 0 -3 -27 -22 -61 -41 -33 -18 -65 -42 -70 -51 -10 -18 -49 -25 -49 -9
0 8 -36 33 -95 66 -11 6 -41 28 -67 47 -26 20 -57 39 -68 43 -20 6 -26 25 -13
38 16 16 62 4 107 -28z m-814 -45 c12 -22 -12 -45 -36 -36 -16 6 -68 -16 -79
-35 -8 -12 22 -49 39 -49 6 0 29 9 51 19 107 51 105 51 158 24 47 -23 48 -25
45 -66 -3 -38 -8 -45 -66 -88 -60 -45 -92 -53 -108 -28 -11 19 8 49 31 49 22
0 85 52 85 70 0 4 -7 11 -16 14 -45 17 -122 -15 -115 -49 3 -16 1 -17 -11 -7
-9 7 -28 10 -47 6 -24 -5 -40 0 -71 20 -35 23 -40 31 -40 66 0 32 6 43 33 64
70 53 127 63 147 26z m641 -39 l23 -18 -35 -17 c-19 -9 -45 -25 -59 -36 -25
-19 -25 -19 -5 -34 26 -20 68 -20 106 0 57 29 82 -7 32 -45 l-28 -21 25 -20
c34 -27 42 -25 91 15 45 38 65 41 83 11 8 -14 8 -20 -2 -23 -7 -3 -18 -11 -25
-18 -7 -7 -27 -20 -45 -29 -18 -9 -32 -24 -32 -34 0 -10 -12 -22 -30 -29 -28
-10 -30 -9 -50 24 -12 21 -36 41 -64 54 -25 10 -46 23 -48 27 -2 5 -29 25 -60
45 -32 20 -58 41 -58 46 0 14 49 59 85 78 16 9 35 22 43 29 18 18 25 18 53 -5z
m792 -39 c18 -18 27 -36 27 -58 l0 -32 65 -4 c124 -8 100 -48 -31 -53 -40 -2
-78 -7 -84 -10 -7 -4 5 -20 29 -38 46 -35 51 -51 21 -67 -16 -8 -28 -5 -62 17
-24 15 -49 36 -56 45 -7 10 -18 18 -24 18 -13 0 -148 91 -148 100 0 8 70 66
111 92 51 32 110 28 152 -10z m1457 -72 c0 -5 14 -24 32 -42 26 -27 29 -33 15
-36 -23 -5 -21 -17 6 -35 l22 -15 -22 -24 c-30 -32 -29 -38 7 -38 32 0 38 -14
16 -39 -23 -26 -23 -58 -1 -75 19 -14 19 -14 -7 -26 -14 -7 -35 -25 -47 -40
-18 -24 -18 -30 -6 -40 21 -17 19 -30 -5 -30 -10 0 -24 -9 -30 -21 -7 -13 -19
-19 -33 -17 -18 2 -22 -2 -20 -20 3 -29 -25 -62 -54 -62 -36 0 -73 -18 -67
-33 6 -16 -68 -80 -104 -91 -19 -6 -21 -10 -11 -23 11 -13 8 -14 -24 -8 -31 6
-37 4 -37 -10 0 -13 -6 -16 -22 -12 -14 4 -34 -3 -58 -20 -36 -27 -53 -53 -65
-105 -6 -25 -4 -27 32 -33 58 -10 63 -12 73 -40 6 -16 17 -25 30 -25 24 0 61
-18 72 -34 4 -6 5 -19 2 -28 -7 -24 39 -41 88 -34 31 5 47 0 90 -27 29 -18 65
-38 79 -44 35 -15 99 -72 99 -88 0 -7 -7 -26 -15 -41 -30 -58 -25 -64 106
-133 62 -32 74 -42 71 -61 -1 -12 3 -28 8 -35 18 -22 -2 -26 -120 -26 -85 0
-110 -4 -110 -14 0 -17 110 -30 168 -20 44 7 46 5 57 -42 l7 -33 -69 0 c-78
-1 -79 2 32 -73 44 -31 54 -42 45 -52 -7 -8 -9 -19 -5 -25 4 -6 -3 -18 -14
-28 -18 -14 -19 -23 -12 -54 l9 -38 -67 -1 c-36 -1 -102 -2 -146 -3 l-80 -1
-3 -40 c-2 -22 -8 -44 -13 -49 -5 -6 -9 -25 -9 -42 0 -18 -4 -36 -10 -39 -5
-3 -10 -26 -10 -50 0 -24 -4 -47 -10 -50 -5 -3 -10 -14 -10 -25 0 -24 -46 -35
-74 -17 -25 17 -114 28 -122 16 -3 -5 -10 -9 -17 -9 -8 0 -8 3 1 12 7 7 12 16
12 20 0 12 -88 10 -95 -2 -11 -18 -38 -11 -33 8 5 17 -4 19 -123 20 -74 1
-131 -3 -134 -8 -4 -6 -13 -7 -24 -1 -22 12 -271 12 -271 0 0 -5 -22 -9 -49
-9 -28 0 -53 -4 -56 -10 -3 -5 -23 -10 -43 -10 -21 0 -46 -6 -57 -14 -32 -21
-99 -28 -121 -11 -12 9 -31 12 -51 9 -29 -5 -33 -3 -33 15 0 17 -6 21 -33 21
-18 0 -38 -5 -44 -11 -15 -15 -34 -2 -31 19 3 18 -14 21 -68 8 -27 -6 -32 -4
-37 15 -5 18 -10 21 -39 15 -37 -8 -38 -8 -127 0 -50 5 -67 3 -75 -8 -6 -8
-34 -18 -63 -22 -54 -7 -83 7 -83 40 0 8 -11 37 -25 64 -27 53 -32 85 -15 95
16 10 1 47 -29 73 -14 13 -53 48 -86 78 -33 30 -72 66 -87 80 -33 30 -35 54
-8 79 26 24 25 41 -5 81 -32 42 -31 55 5 76 23 13 36 15 66 6 20 -5 60 -7 88
-4 28 3 80 5 116 5 75 0 89 9 111 76 7 22 16 45 20 50 3 6 10 31 13 57 4 26
11 50 16 53 4 3 11 23 15 45 9 54 64 104 103 93 23 -7 91 -8 160 -3 9 0 40 -2
69 -6 30 -4 65 -2 82 4 23 8 39 8 64 -2 17 -8 50 -16 72 -19 66 -8 132 -26
167 -45 51 -28 114 -45 140 -39 89 21 115 30 156 52 43 23 46 27 48 70 2 25 6
50 9 55 10 17 88 53 115 54 20 1 26 7 28 31 2 21 12 35 32 47 21 12 30 25 30
43 0 14 12 67 26 118 24 87 29 96 89 157 36 36 94 88 130 115 126 95 210 167
221 188 6 12 15 40 19 62 4 22 15 57 26 79 11 24 19 61 19 93 0 46 3 53 20 53
11 0 20 -4 20 -10z m-3106 -77 c28 -15 70 -42 94 -61 36 -28 42 -39 42 -71 0
-29 -8 -46 -40 -81 -22 -24 -40 -47 -40 -51 0 -18 -88 6 -120 33 -19 16 -57
44 -85 61 -101 65 -96 125 15 184 38 20 77 16 134 -14z m1389 -27 c43 -18 68
-48 65 -77 -3 -23 0 -24 57 -24 111 1 123 -62 14 -73 -30 -2 -57 -9 -61 -15
-4 -7 -11 -7 -21 1 -10 9 -22 9 -38 3 -13 -5 -19 -10 -14 -10 20 -2 85 -71 85
-91 0 -27 -34 -44 -60 -30 -11 6 -20 16 -20 23 0 17 -58 60 -73 54 -19 -7 -32
-3 -29 9 2 10 -24 37 -82 82 -23 17 -37 21 -60 16 l-31 -7 35 41 c19 22 40 41
46 41 6 1 17 8 25 17 17 21 79 52 107 53 12 1 37 -5 55 -13z m-748 -30 c77
-19 117 -31 141 -44 10 -6 36 -18 56 -26 42 -19 50 -28 43 -48 -8 -20 -67 -40
-79 -28 -17 17 -39 11 -75 -19 l-34 -28 23 -38 c19 -30 20 -39 9 -46 -27 -17
-58 -9 -76 19 -10 15 -25 33 -35 40 -9 7 -27 32 -39 57 -12 25 -31 47 -41 51
-10 3 -18 8 -19 12 -3 30 -10 45 -24 56 -16 11 -14 15 16 40 21 18 39 26 53
22 12 -3 48 -12 81 -20z m-935 -96 c8 -5 15 -19 15 -32 0 -16 15 -30 53 -53
127 -77 153 -131 90 -192 -27 -26 -43 -32 -83 -34 -39 -2 -49 1 -46 12 2 8 4
23 5 34 1 16 8 20 36 20 77 1 84 26 20 70 -28 19 -45 25 -61 20 -17 -6 -21 -4
-16 8 6 17 -17 41 -51 52 -19 5 -25 2 -29 -14 -3 -12 -10 -21 -15 -21 -21 0
-48 22 -48 38 0 17 46 65 85 89 24 15 26 15 45 3z m704 -56 c25 -10 20 -18
-34 -55 -27 -19 -50 -37 -50 -41 0 -4 14 -17 32 -29 l31 -23 38 22 c21 12 47
22 58 22 29 0 27 -28 -4 -52 -14 -11 -25 -23 -25 -27 0 -4 20 -22 44 -39 33
-24 44 -38 42 -56 -1 -20 -7 -25 -33 -28 -26 -3 -33 0 -33 14 0 15 -30 39
-102 83 -72 44 -137 92 -137 101 -1 13 39 50 94 87 41 28 53 31 79 21z m743
-10 c2 -6 -19 -26 -47 -44 -28 -18 -49 -38 -47 -44 2 -6 18 -18 36 -27 32 -15
35 -14 82 10 38 21 51 23 60 14 10 -10 7 -20 -19 -46 -18 -18 -32 -36 -32 -40
0 -3 13 -13 29 -22 28 -14 31 -14 71 20 44 37 68 43 88 23 21 -21 13 -33 -48
-69 -37 -21 -60 -41 -60 -51 0 -13 -8 -18 -29 -18 -16 0 -31 -6 -34 -12 -3
-10 -8 -10 -16 -2 -10 9 -9 15 3 27 14 14 11 18 -33 46 -26 17 -51 31 -55 31
-4 0 -32 20 -63 45 -30 25 -61 45 -69 45 -21 0 -17 13 14 43 74 71 158 106
169 71z m-187 -169 c0 -8 -13 -21 -30 -30 -16 -9 -30 -19 -30 -24 0 -4 22 -22
50 -40 27 -17 68 -48 91 -67 23 -19 51 -41 61 -48 16 -12 17 -16 5 -40 l-14
-26 -68 51 c-131 97 -197 124 -225 90 -3 -3 -15 -12 -27 -18 -50 -28 -41 44 9
76 18 11 57 41 87 65 44 36 58 43 73 35 10 -5 18 -16 18 -24z m-716 -97 c133
-36 188 -64 180 -93 -9 -27 -5 -25 -63 -28 -28 -1 -51 -5 -51 -8 0 -4 -13 -12
-30 -19 -36 -15 -38 -35 -8 -67 19 -20 20 -25 8 -33 -34 -22 -59 -10 -104 49
-25 32 -51 70 -57 85 -7 14 -16 26 -20 26 -8 0 -59 74 -59 85 0 12 66 45 80
39 8 -3 64 -19 124 -36z m577 -139 c30 -6 65 -17 79 -24 14 -7 42 -21 63 -31
49 -24 49 -25 27 -54 -15 -20 -21 -23 -31 -12 -21 20 -58 14 -97 -15 -20 -15
-38 -28 -40 -29 -7 -4 47 -82 60 -87 8 -2 9 -8 4 -13 -5 -5 -11 -4 -13 4 -7
17 -20 15 -44 -9 -16 -16 -23 -18 -35 -9 -7 7 -11 16 -8 21 8 14 -14 47 -36
54 -11 3 -20 14 -20 23 0 8 -18 37 -40 63 -22 26 -40 51 -40 55 0 4 -9 18 -21
30 -24 26 -19 38 23 64 29 17 31 17 72 -1 24 -10 67 -24 97 -30z m-817 -68
c12 -13 17 -29 14 -45 -5 -22 -1 -26 28 -32 18 -3 57 -4 87 -2 l54 3 -17 -30
c-17 -30 -17 -30 -113 -33 -53 -1 -97 -6 -97 -11 0 -4 18 -22 40 -40 42 -34
50 -55 24 -65 -28 -11 -40 -7 -80 29 -21 20 -62 49 -89 65 -28 16 -61 40 -74
54 -14 14 -30 26 -38 26 -43 0 15 53 120 111 51 27 51 27 86 9 20 -10 44 -27
55 -39z m559 -80 c28 -11 43 -41 26 -52 -7 -4 -35 -5 -63 -2 -42 4 -54 2 -69
-14 -26 -29 -13 -48 70 -104 80 -53 95 -55 132 -15 l21 23 -21 27 c-16 20 -19
30 -10 39 6 6 11 19 11 29 0 14 9 10 40 -19 22 -21 40 -45 40 -54 0 -37 -30
-86 -64 -104 -21 -11 -36 -27 -36 -37 0 -19 -15 -24 -24 -9 -3 4 -18 11 -33
14 -16 3 -41 17 -57 31 -16 14 -52 40 -80 58 -62 39 -66 44 -66 86 0 70 108
131 183 103z m-82 -294 c28 -29 38 -74 22 -91 -5 -4 -8 -13 -8 -19 0 -19 -107
-85 -149 -91 -34 -4 -38 -3 -33 14 3 14 -6 26 -37 47 -22 15 -61 43 -84 62
-40 32 -43 38 -38 69 7 43 24 62 81 91 24 12 47 26 50 31 7 12 161 -76 196
-113z m-351 -113 c39 -26 50 -45 50 -84 0 -27 -7 -43 -30 -65 -37 -36 -37 -46
-2 -67 15 -9 36 -26 46 -37 15 -17 16 -23 6 -36 -17 -21 -38 -19 -64 5 -11 12
-68 53 -126 93 -58 40 -106 80 -108 89 -4 23 139 118 177 118 15 0 38 -7 51
-16z m2044 -1135 c20 -12 36 -27 36 -34 0 -7 11 -22 25 -32 23 -16 25 -23 19
-60 -6 -38 -8 -41 -26 -30 -16 9 -22 9 -25 0 -3 -7 -12 -13 -20 -13 -9 0 -21
-6 -27 -14 -6 -8 -25 -17 -43 -21 -30 -6 -31 -5 -30 29 1 32 4 36 26 36 38 0
72 11 65 21 -3 5 -29 6 -58 3 -63 -8 -96 6 -96 40 0 19 12 29 55 51 30 14 55
31 55 36 0 13 4 12 44 -12z m-1836 -49 c29 -13 42 -25 42 -40 0 -25 -20 -26
-67 0 -50 27 -77 25 -97 -5 -23 -35 -20 -44 20 -61 27 -11 40 -12 48 -4 8 8 5
12 -12 16 -27 8 -28 20 -3 33 14 8 27 6 49 -4 34 -18 61 -45 43 -45 -6 0 -11
-6 -11 -14 0 -40 -113 -64 -140 -31 -7 8 -20 15 -29 15 -9 0 -24 11 -33 25
-22 29 -12 64 30 108 21 22 34 27 71 27 25 0 65 -9 89 -20z m175 -83 c6 -16
-3 -68 -14 -82 -10 -14 0 -29 29 -44 29 -16 38 -9 47 35 12 66 54 108 69 69 7
-20 -14 -127 -28 -142 -6 -6 -42 -13 -80 -15 -69 -3 -70 -3 -77 25 -4 16 -12
34 -18 41 -9 11 6 87 24 116 9 15 42 12 48 -3z m1380 -6 c19 -11 45 -25 58
-33 37 -20 69 -50 69 -63 0 -14 -81 -28 -106 -18 -9 3 -20 0 -25 -8 -4 -8 -21
-14 -36 -14 -18 0 -28 -5 -28 -15 0 -22 -22 -32 -55 -25 -27 6 -43 25 -21 25
5 0 13 33 19 72 15 99 50 121 125 79z m-239 -37 c8 -3 18 -22 21 -42 4 -21 11
-47 17 -59 12 -24 1 -45 -33 -64 -13 -7 -23 -4 -36 9 -57 59 -129 80 -103 32
9 -16 8 -25 -1 -36 -32 -38 -64 10 -64 96 0 55 0 55 29 52 17 -2 48 -14 71
-28 54 -31 67 -31 59 2 -4 17 -2 29 7 35 17 11 14 10 33 3z m-830 -20 c8 -3
29 -35 46 -71 24 -51 28 -68 19 -79 -15 -18 -49 -18 -49 1 0 16 -30 35 -54 35
-9 0 -16 -7 -16 -15 0 -8 -4 -15 -10 -15 -5 0 -10 6 -10 14 0 11 -9 13 -35 9
-28 -4 -35 -2 -35 10 0 15 34 73 60 105 11 13 57 16 84 6z m309 -26 c20 -10
22 -50 5 -78 -10 -15 -9 -22 6 -39 10 -11 16 -27 13 -34 -8 -21 -71 1 -83 27
-13 30 -42 32 -46 4 -2 -16 -12 -24 -33 -28 l-31 -7 4 66 c4 83 6 90 34 100
25 10 103 3 131 -11z m234 -4 c2 -7 -14 -14 -37 -18 -47 -7 -52 -24 -10 -32
39 -8 40 -34 1 -34 -17 0 -33 -4 -36 -10 -5 -9 11 -15 60 -22 11 -2 20 -10 20
-18 0 -17 -59 -25 -112 -15 -33 6 -33 6 -33 66 0 90 9 101 82 97 34 -2 63 -8
65 -14z"/>
<path d="M3168 4198 c6 -6 8 -16 3 -22 -4 -6 -11 -28 -14 -48 -5 -31 -2 -40
14 -49 16 -8 25 -7 39 6 20 18 43 21 81 11 31 -9 46 6 51 49 3 33 8 31 -97 35
-27 1 -44 4 -37 7 23 9 12 23 -20 23 -25 0 -29 -3 -20 -12z"/>
<path d="M1535 3144 c-21 -32 -14 -50 26 -72 17 -9 47 -29 66 -44 20 -16 46
-28 58 -28 22 0 65 37 65 56 0 14 -41 50 -65 58 -11 3 -33 17 -49 31 -38 33
-79 33 -101 -1z"/>
<path d="M1917 2152 c-32 -35 -24 -45 84 -118 l53 -35 33 18 c18 9 35 23 38
31 5 14 -22 62 -35 62 -4 0 -27 13 -51 30 -50 34 -98 39 -122 12z"/>
</g>
</svg>
