<?xml version="1.0" standalone="no"?>
<!DOCTYPE svg PUBLIC "-//W3C//DTD SVG 20010904//EN"
 "http://www.w3.org/TR/2001/REC-SVG-20010904/DTD/svg10.dtd">
<svg version="1.0" xmlns="http://www.w3.org/2000/svg"
 width="580.000000pt" height="489.000000pt" viewBox="0 0 580.000000 489.000000"
 preserveAspectRatio="xMidYMid meet">
<metadata>
Created by potrace 1.16, written by Peter Selinger 2001-2019
</metadata>
<g transform="translate(0.000000,489.000000) scale(0.100000,-0.100000)"
fill="#000000" stroke="none">
<path d="M365 4779 c-82 -3 -164 -11 -180 -17 -62 -25 -59 53 -60 -1678 0
-1435 1 -1574 16 -1590 9 -11 14 -25 12 -32 -3 -7 2 -27 10 -45 8 -18 31 -75
51 -127 20 -52 41 -102 47 -110 5 -8 17 -28 27 -44 9 -16 24 -36 32 -45 8 -9
20 -27 27 -41 17 -39 133 -164 160 -173 12 -5 23 -15 23 -22 0 -25 132 -143
250 -222 83 -56 265 -163 277 -163 5 0 40 -15 78 -34 39 -19 88 -41 110 -49
22 -8 78 -29 125 -47 47 -17 130 -44 185 -60 55 -15 125 -35 155 -43 37 -10
57 -12 61 -5 10 15 29 0 22 -17 -3 -10 2 -15 16 -15 12 0 21 5 21 10 0 18 58
11 69 -7 8 -15 13 -16 30 -5 26 15 31 15 31 -1 0 -9 15 -14 48 -14 26 0 54 -3
62 -6 8 -3 33 -8 55 -11 22 -3 55 -8 73 -12 21 -4 32 -2 32 5 0 19 29 12 40
-10 13 -23 50 -40 65 -29 15 12 64 7 69 -7 4 -8 18 -10 43 -6 44 7 60 7 130 1
44 -4 52 -2 56 14 6 22 27 24 27 3 0 -8 9 -15 21 -15 11 0 29 -5 40 -10 13 -7
31 -8 54 -1 21 6 37 6 41 0 10 -16 36 -9 41 11 7 26 23 26 23 1 0 -13 9 -21
30 -26 16 -4 34 -4 39 -1 5 3 68 7 141 8 72 1 134 6 137 11 2 4 12 6 21 3 63
-20 152 -10 152 16 0 4 4 8 10 8 5 0 7 -7 4 -15 -7 -18 35 -19 131 -4 33 5 75
11 93 13 18 2 38 8 45 14 6 5 30 12 52 15 22 3 67 11 100 17 33 6 85 13 115
15 73 6 158 24 165 35 3 4 24 11 48 15 23 4 47 11 52 15 6 4 42 14 81 23 84
19 296 107 371 154 29 18 55 33 58 33 5 0 142 80 189 110 36 23 128 94 177
137 25 21 63 52 84 68 69 53 225 224 225 247 0 5 20 37 45 69 25 33 45 65 45
73 0 7 8 24 18 37 18 24 81 148 141 282 27 60 36 94 58 212 3 17 7 640 8 1385
1 745 4 1414 6 1485 2 89 -1 137 -9 153 -13 23 -65 49 -117 58 -41 7 -5041 10
-5230 3z m608 -491 c11 -9 17 -31 18 -78 1 -36 1 -69 -1 -75 -2 -5 0 -18 4
-27 6 -13 12 -15 26 -8 14 8 17 23 17 90 0 45 4 85 9 90 5 4 25 10 44 12 33 3
35 1 32 -24 -2 -14 2 -29 8 -33 5 -3 7 -12 3 -18 -5 -7 -8 -40 -9 -74 -1 -44
-6 -69 -17 -81 -22 -24 -21 -29 5 -36 18 -4 20 -8 10 -18 -10 -10 -17 -10 -31
-1 -11 7 -34 10 -53 8 -132 -16 -130 -16 -127 8 2 12 -1 28 -5 36 -12 19 -9
182 4 215 10 28 36 34 63 14z m513 -21 c1 -34 7 -40 32 -33 11 4 18 15 18 28
-1 20 6 24 54 30 68 9 110 -3 154 -46 31 -29 33 -33 18 -43 -9 -7 -12 -12 -6
-12 13 -1 53 40 68 71 10 20 19 23 65 23 50 0 56 -3 71 -29 32 -59 81 -60 88
-3 4 29 10 32 99 42 51 5 53 5 93 -35 25 -25 38 -45 33 -53 -4 -7 -8 -41 -9
-77 -2 -62 -3 -66 -43 -101 -38 -34 -44 -36 -93 -32 -97 8 -96 6 -90 62 4 50
-9 74 -31 52 -7 -7 -7 -24 0 -56 8 -35 7 -47 -3 -56 -19 -16 -71 -2 -77 22 -8
30 -65 26 -77 -5 -11 -30 -27 -35 -63 -22 -26 10 -28 15 -24 46 3 19 8 46 12
59 7 19 5 22 -11 19 -11 -2 -21 -15 -25 -34 -3 -17 -9 -36 -13 -43 -14 -22
-84 -51 -113 -46 -15 2 -45 7 -66 10 -30 5 -36 9 -29 21 12 21 2 74 -13 74
-15 0 -25 -53 -13 -73 15 -28 -17 -41 -64 -27 -50 14 -108 14 -122 0 -14 -14
-46 -12 -46 3 0 7 5 18 11 24 14 14 2 53 -15 53 -8 0 -16 -13 -19 -29 -4 -18
-14 -30 -27 -34 -36 -9 -50 2 -51 42 -3 100 -1 210 5 220 4 6 22 11 40 11 25
0 38 -7 50 -25 18 -28 36 -25 36 6 0 15 7 19 35 19 29 0 37 -5 45 -26 10 -26
35 -29 35 -3 0 16 42 40 65 36 9 -1 15 -14 16 -30z m1077 18 c26 -19 18 -49
-13 -53 -51 -6 -54 -12 -17 -40 42 -32 42 -43 -1 -58 -18 -5 -29 -14 -25 -18
4 -4 0 -12 -10 -17 -25 -15 -11 -29 28 -29 21 0 35 -6 39 -16 3 -8 14 -14 23
-12 15 3 18 15 20 73 3 105 3 106 19 136 29 57 132 58 188 3 l26 -26 9 24 c19
49 64 62 77 21 3 -10 9 -25 14 -34 5 -10 4 -21 -2 -27 -8 -8 -8 -15 1 -26 8
-9 8 -16 2 -20 -6 -4 -9 -23 -8 -44 2 -29 6 -37 22 -37 15 0 19 7 20 38 1 21
-2 40 -7 43 -5 3 -4 12 3 20 9 11 9 17 0 28 -9 10 -9 16 -1 21 6 4 15 18 21
32 12 33 62 30 67 -4 4 -28 12 -29 45 -3 42 33 107 37 156 9 24 -13 44 -33 47
-46 9 -33 32 -28 50 10 9 18 28 40 44 49 27 15 31 15 69 -4 34 -17 41 -25 41
-50 0 -22 6 -31 21 -35 21 -6 21 -7 4 -19 -15 -11 -16 -16 -6 -28 7 -8 10 -20
7 -25 -4 -6 0 -26 9 -46 19 -48 6 -75 -36 -75 -17 0 -32 6 -35 14 -9 23 -61
30 -89 12 -31 -21 -65 -20 -80 0 -17 24 -55 2 -48 -27 5 -20 3 -21 -18 -15
-13 5 -40 10 -59 13 -19 3 -54 21 -77 39 -41 33 -42 34 -56 14 -18 -26 -71
-47 -127 -52 -38 -3 -45 0 -48 17 -2 11 -9 26 -16 34 -6 8 -11 23 -11 34 0 11
-6 22 -14 25 -10 3 -12 -2 -7 -21 5 -20 1 -29 -14 -37 -11 -6 -20 -17 -20 -24
0 -24 -64 -32 -158 -18 -48 6 -70 5 -89 -5 -16 -8 -30 -10 -37 -4 -6 5 -34 11
-61 13 l-50 3 3 36 c2 21 -2 40 -8 44 -7 4 -8 11 -2 18 13 16 12 79 -1 95 -8
10 -7 16 6 23 9 6 17 19 17 29 0 20 15 27 80 33 19 2 40 4 45 5 6 1 18 -5 28
-13z m1170 -17 c27 -14 20 -36 -13 -43 -24 -5 -30 -12 -31 -33 -5 -182 -9
-197 -49 -189 -8 1 -20 -4 -26 -12 -6 -8 -18 -11 -28 -8 -22 9 -20 27 3 27 16
0 18 7 16 48 -2 26 -4 52 -5 57 -2 6 1 19 5 29 6 14 4 23 -7 30 -15 9 -15 11
0 22 15 11 14 14 -13 25 -17 7 -32 14 -34 16 -3 2 6 14 19 28 21 22 28 24 84
18 34 -3 69 -10 79 -15z m215 -2 c7 -4 19 -32 28 -62 8 -29 19 -54 23 -54 5 0
17 24 28 53 21 55 50 79 85 69 16 -4 19 -10 14 -37 -4 -17 -3 -34 0 -38 12
-12 42 12 52 43 10 27 15 30 54 30 24 0 48 -4 54 -8 15 -9 44 -79 36 -86 -3
-3 -1 -6 5 -6 6 0 13 -19 15 -42 3 -24 15 -63 27 -87 11 -25 21 -46 21 -48 0
-2 -13 -3 -28 -3 -15 0 -32 -4 -38 -9 -5 -5 -26 -1 -49 9 -30 14 -35 19 -18
19 12 1 25 6 28 11 4 6 -16 10 -52 10 -51 -1 -56 -2 -40 -14 30 -23 5 -28
-134 -30 -91 -1 -130 2 -133 11 -3 6 0 13 6 15 8 3 6 15 -5 38 -9 18 -17 40
-17 50 0 9 -5 21 -12 28 -8 8 -8 15 0 24 8 11 6 17 -10 27 -17 11 -23 10 -36
-3 -12 -12 -13 -18 -3 -30 7 -8 8 -17 2 -20 -14 -9 -12 -109 2 -118 7 -5 1 -8
-16 -8 -16 0 -38 -5 -49 -11 -25 -14 -47 3 -30 23 5 7 11 51 11 98 1 113 5
150 20 160 15 9 143 6 159 -4z m-1828 -600 c6 -8 20 -16 31 -18 30 -5 18 -23
-16 -23 -29 0 -95 -33 -95 -47 0 -4 11 -14 23 -23 21 -14 28 -14 60 0 19 8 38
19 42 25 11 17 33 11 40 -11 5 -14 0 -27 -14 -40 -24 -23 -26 -30 -9 -47 18
-18 38 -15 75 14 41 31 81 36 97 11 9 -15 6 -22 -17 -41 -18 -14 -26 -28 -22
-38 8 -21 -12 -33 -31 -17 -12 10 -18 9 -32 -4 -15 -16 -14 -17 13 -18 26 0
27 -2 10 -9 -33 -14 -64 -11 -93 8 -79 54 -109 72 -123 72 -8 0 -22 8 -31 18
-36 37 -54 51 -80 63 -16 7 -28 16 -28 20 0 7 76 73 120 102 30 21 64 22 80 3z
m1329 -100 c7 -8 29 -17 50 -21 21 -3 84 -23 142 -44 100 -36 104 -39 104 -67
0 -28 -2 -29 -45 -29 -32 0 -44 -4 -42 -13 2 -10 -4 -11 -19 -7 -22 7 -69 -11
-69 -27 0 -5 10 -22 22 -39 15 -19 19 -33 12 -37 -6 -4 -13 -15 -17 -24 -14
-39 -59 -15 -85 45 -6 15 -16 27 -22 27 -6 0 -15 10 -21 23 -19 42 -34 63 -77
106 -32 33 -46 41 -55 32 -14 -14 -27 -14 -27 -1 0 6 8 13 18 17 9 3 27 15 39
26 22 19 62 44 74 46 4 1 12 -5 18 -13z m-709 -116 c47 -28 89 -55 95 -61 17
-17 44 -9 94 26 26 19 52 35 57 35 10 -1 48 -49 42 -55 -1 -1 -31 -19 -65 -39
-34 -20 -65 -45 -68 -56 -7 -23 -65 -29 -65 -7 0 6 -19 23 -42 37 -65 40 -107
68 -129 89 -12 11 -34 25 -50 31 -33 14 -37 34 -11 49 25 16 48 8 142 -49z
m-846 -22 c20 -28 5 -48 -38 -48 -58 0 -98 -47 -59 -68 16 -10 42 -1 141 47
31 15 35 15 87 -13 52 -27 55 -31 55 -66 0 -30 -7 -43 -41 -74 -57 -51 -92
-67 -128 -60 -49 10 -40 55 12 68 30 7 77 47 77 66 0 5 -17 10 -38 10 -40 0
-62 -16 -76 -54 -5 -15 -9 -17 -18 -8 -7 7 -33 12 -60 12 -39 0 -53 5 -78 30
-32 32 -39 73 -17 104 20 27 109 76 139 76 16 0 33 -8 42 -22z m670 -70 c-3
-4 -12 -8 -20 -8 -17 0 -94 -49 -94 -60 0 -4 13 -13 29 -19 23 -10 35 -9 66 3
48 20 74 20 82 -1 4 -11 -3 -24 -23 -40 -28 -23 -28 -24 -10 -38 27 -20 40
-19 73 9 55 46 68 49 101 21 17 -14 35 -25 41 -25 6 0 11 -5 11 -11 0 -7 -11
-8 -29 -4 -17 3 -32 2 -36 -5 -3 -5 -24 -19 -46 -30 -63 -33 -52 -50 32 -50
50 0 70 -3 67 -12 -3 -8 -37 -12 -110 -12 -106 -1 -106 -1 -125 27 -21 33 -65
59 -86 51 -10 -3 -18 2 -22 15 -11 35 -72 75 -118 76 -43 1 -61 20 -30 32 10
3 40 26 67 50 26 24 54 43 62 43 16 0 36 34 26 44 -4 4 16 -5 45 -20 28 -16
49 -32 47 -36z m762 -13 c23 -23 34 -44 34 -64 0 -30 0 -30 65 -33 62 -3 67
-5 86 -35 18 -28 19 -33 5 -33 -10 0 -13 6 -10 15 7 17 -21 21 -31 5 -3 -5
-37 -10 -75 -10 -83 0 -105 -7 -89 -26 6 -8 22 -14 36 -14 15 0 22 -4 17 -11
-3 -6 0 -15 7 -20 11 -6 11 -13 3 -26 -16 -26 -50 -27 -83 -4 -16 12 -34 21
-40 21 -7 0 -14 7 -18 15 -3 9 -29 27 -57 42 -28 14 -59 32 -68 40 -15 14 -19
13 -34 -1 -12 -13 -20 -14 -28 -6 -8 8 -6 15 6 24 11 8 14 16 8 22 -18 18 92
113 146 127 56 14 87 7 120 -28z m1467 -71 c-3 -9 7 -28 28 -50 25 -26 29 -34
16 -34 -24 0 -21 -15 6 -33 l22 -15 -24 -26 -24 -26 22 0 c30 0 36 -23 18 -69
-14 -34 -14 -40 -2 -45 21 -8 19 -34 -3 -40 -10 -4 -28 -19 -39 -34 -22 -30
-16 -52 20 -65 30 -11 9 -26 -28 -20 -26 4 -36 2 -41 -11 -4 -10 -18 -16 -35
-16 -26 0 -28 -2 -18 -18 15 -24 -15 -62 -48 -62 -30 0 -74 -21 -67 -32 4 -5
-11 -25 -32 -44 -28 -27 -35 -37 -25 -44 17 -10 5 -31 -14 -24 -8 4 -12 11 -8
17 4 7 0 8 -11 4 -10 -4 -21 -7 -26 -7 -4 0 -6 -10 -2 -22 5 -22 6 -22 -42 -2
-8 3 -16 -3 -19 -16 -4 -17 -10 -20 -27 -15 -36 12 -96 -38 -109 -90 -15 -58
-16 -55 22 -55 37 0 77 -24 77 -45 0 -8 12 -17 28 -21 45 -11 72 -32 72 -59 0
-29 31 -41 85 -32 27 4 44 -2 94 -34 33 -21 65 -39 71 -39 7 0 32 -16 56 -36
33 -27 44 -43 44 -65 0 -15 -4 -31 -10 -34 -5 -3 -10 -19 -10 -35 0 -31 13
-42 130 -102 53 -28 65 -38 65 -58 0 -33 12 -50 36 -50 10 0 19 -7 19 -15 0
-17 -25 -20 -35 -5 -8 13 -128 13 -141 0 -8 -8 -19 -7 -37 1 -15 7 -37 8 -54
4 l-28 -7 25 -10 c14 -5 61 -8 105 -7 45 2 86 0 92 -4 6 -4 13 -20 16 -37 4
-18 13 -30 22 -30 8 0 15 -7 15 -15 0 -17 -25 -20 -35 -5 -3 6 -33 10 -67 10
-53 0 -59 -2 -48 -15 7 -8 16 -15 21 -15 5 0 30 -16 56 -36 42 -32 48 -42 50
-75 1 -32 -2 -39 -18 -39 -15 0 -19 -7 -19 -34 0 -29 4 -36 32 -45 25 -9 29
-14 20 -23 -9 -9 -17 -10 -30 -2 -9 6 -26 10 -37 8 -30 -4 -143 -6 -205 -2
l-55 3 -3 -36 c-2 -30 1 -37 17 -42 12 -3 21 -10 21 -16 0 -14 -27 -14 -35 -1
-12 19 -25 -1 -25 -40 0 -21 -5 -40 -11 -42 -6 -2 -12 -21 -14 -43 -1 -22 -6
-48 -9 -58 -3 -9 -8 -24 -11 -32 -6 -20 -79 -20 -99 0 -18 18 -87 20 -104 3
-9 -9 -15 -9 -24 0 -10 10 -10 15 2 22 11 7 4 10 -25 10 -23 0 -46 -5 -52 -11
-15 -15 -47 -3 -40 15 5 12 -9 14 -73 13 -62 0 -77 -3 -69 -13 7 -8 7 -14 -1
-19 -14 -9 -30 3 -24 19 7 18 -246 22 -257 4 -6 -9 -13 -8 -27 5 -10 9 -34 17
-53 16 -30 0 -32 -1 -11 -9 41 -17 23 -27 -50 -27 -78 0 -141 -9 -173 -23 -54
-24 -102 -30 -130 -16 -17 9 -40 12 -57 9 -24 -5 -30 -2 -34 15 -6 21 -50 36
-60 21 -3 -5 -17 -9 -31 -9 -20 0 -24 4 -20 20 4 17 0 20 -23 20 -16 0 -32 -4
-35 -10 -10 -17 -32 -11 -38 10 -4 14 -14 20 -35 20 -17 0 -32 -6 -35 -12 -3
-10 -9 -10 -26 -1 -28 17 -142 17 -139 1 2 -8 -18 -15 -57 -19 -60 -7 -95 2
-95 23 0 11 -29 80 -51 120 -12 23 -12 55 1 63 20 12 9 36 -37 77 -26 24 -63
59 -82 79 -20 20 -46 42 -58 48 -13 6 -30 26 -39 43 -15 29 -15 32 5 59 28 37
27 52 -8 92 -16 18 -27 38 -23 43 15 22 79 53 88 44 11 -11 87 -14 205 -8 76
3 109 17 109 44 0 8 4 22 9 32 16 32 29 67 46 127 31 112 36 122 60 145 24 22
30 23 227 24 141 1 215 -2 242 -11 21 -7 52 -13 69 -13 40 0 94 -17 187 -58
64 -29 81 -32 124 -20 34 9 42 15 38 30 -2 10 1 18 7 18 6 0 11 -7 11 -15 0
-20 8 -19 68 11 50 25 52 27 52 68 0 31 6 48 23 63 36 32 91 60 110 56 12 -3
17 2 17 17 0 11 15 35 34 53 29 28 35 41 41 95 4 34 11 65 16 68 5 3 7 9 4 14
-12 19 40 102 98 157 65 61 69 64 193 157 106 79 154 129 154 161 0 14 4 33 9
43 36 71 53 136 46 175 -6 29 -4 36 12 40 38 10 53 7 46 -9z m-3130 -70 c29
-14 76 -44 105 -65 47 -36 52 -43 52 -78 0 -25 -5 -41 -15 -45 -8 -3 -15 -14
-15 -24 0 -10 -11 -24 -25 -30 -15 -7 -25 -20 -25 -32 0 -21 -24 -28 -35 -10
-3 6 -23 10 -44 10 -30 0 -42 6 -55 24 -8 14 -43 39 -77 57 -62 34 -79 56 -79
108 0 32 29 62 86 91 51 25 65 25 127 -6z m1418 -40 c35 -18 52 -40 53 -72 1
-22 6 -28 30 -30 16 -2 40 2 52 9 21 11 26 9 44 -12 35 -42 23 -63 -45 -74
-33 -5 -66 -14 -73 -18 -7 -5 -19 -4 -27 3 -8 7 -19 10 -24 8 -16 -5 73 -93
95 -93 25 0 25 -30 -1 -31 -11 -1 -32 -4 -46 -8 -36 -10 -116 11 -100 27 15
15 14 27 -4 27 -7 0 -18 7 -23 16 -6 11 -11 13 -16 5 -11 -18 -36 -13 -36 7 0
10 -21 36 -46 58 -62 52 -66 55 -81 42 -15 -12 -43 -4 -43 12 0 6 8 14 17 17
9 4 26 17 38 30 11 13 47 41 80 62 64 42 96 46 156 15z m-741 -31 c52 -13 99
-28 105 -32 5 -4 31 -15 57 -25 55 -20 69 -35 62 -63 -7 -25 -78 -41 -100 -22
-12 10 -19 8 -34 -9 -11 -11 -27 -25 -36 -30 -14 -8 -14 -13 -4 -33 7 -13 21
-31 32 -40 20 -15 19 -16 -25 -28 -51 -15 -87 -3 -87 28 0 10 -11 26 -24 34
-13 9 -34 36 -46 61 -12 25 -30 48 -41 51 -10 4 -22 17 -25 31 -3 13 -14 29
-23 34 -14 9 -12 13 13 34 16 13 26 29 22 35 -8 13 21 8 154 -26z m-949 -94
c14 -7 18 -16 14 -29 -5 -16 4 -26 41 -47 26 -16 67 -45 91 -67 53 -48 57 -85
14 -132 -23 -26 -38 -32 -90 -37 l-62 -7 7 38 c9 50 12 53 39 46 26 -6 65 3
65 15 0 4 -20 22 -43 39 -31 22 -47 28 -55 20 -12 -12 -35 -1 -26 13 8 14 -25
49 -48 49 -11 0 -18 -7 -18 -20 0 -24 -26 -26 -58 -4 -31 21 -28 44 11 79 59
55 82 64 118 44z m697 -55 c23 -16 29 -34 11 -34 -14 0 -88 -52 -89 -62 0 -4
11 -15 25 -24 25 -16 28 -16 75 6 27 12 56 20 64 17 24 -9 19 -36 -9 -59 -14
-11 -25 -23 -25 -28 0 -5 20 -23 44 -40 31 -22 44 -39 44 -56 0 -18 -6 -24
-22 -24 -11 0 -31 -3 -43 -6 -17 -5 -22 -1 -25 17 -2 15 -27 37 -80 70 -43 26
-87 57 -99 68 -13 12 -31 23 -41 27 -32 10 -19 29 62 97 60 50 75 55 108 31z
m736 -3 c16 -18 15 -20 -18 -41 -20 -12 -36 -26 -36 -31 0 -5 -7 -9 -16 -9
-23 0 -12 -23 18 -38 23 -11 33 -9 79 14 50 26 53 26 66 8 11 -16 9 -22 -19
-52 -32 -32 -32 -34 -14 -48 28 -20 36 -18 85 21 51 40 52 41 81 17 30 -24 19
-42 -45 -76 -35 -18 -55 -35 -55 -46 0 -19 -19 -30 -51 -30 -10 0 -19 -4 -19
-10 0 -5 -7 -10 -16 -10 -12 0 -15 7 -12 31 4 25 -1 34 -26 54 -17 12 -42 26
-56 30 -14 4 -39 22 -56 39 -45 46 -124 75 -124 46 0 -5 -9 -10 -20 -10 -11 0
-20 7 -20 15 0 10 10 15 33 15 23 0 41 8 58 26 27 29 138 103 155 104 6 0 19
-8 28 -19z m-190 -157 c23 -23 20 -32 -19 -51 -42 -20 -43 -26 -10 -41 14 -7
31 -16 38 -22 7 -5 47 -37 91 -71 57 -44 75 -64 67 -72 -6 -6 -11 -19 -11 -29
0 -10 -5 -18 -11 -18 -10 0 -74 48 -123 93 -11 9 -24 17 -28 17 -5 0 -26 11
-48 25 -22 14 -46 25 -53 25 -18 0 -75 -28 -82 -41 -10 -16 -25 -10 -25 10 0
11 -5 23 -11 26 -12 8 17 45 35 45 5 0 24 13 41 29 42 41 108 89 122 90 6 1
19 -6 27 -15z m-773 -93 c187 -49 255 -81 255 -120 0 -14 -7 -21 -20 -21 -11
0 -33 -4 -50 -10 -17 -5 -42 -12 -56 -14 -14 -3 -34 -12 -45 -20 -20 -14 -20
-15 9 -45 17 -17 39 -31 50 -32 12 0 -3 -7 -33 -14 -30 -7 -61 -11 -68 -8 -7
3 -30 28 -50 57 -21 28 -43 57 -50 64 -7 7 -13 20 -13 27 0 8 -8 19 -19 24
-10 6 -29 27 -41 48 l-22 37 27 23 c32 28 33 28 126 4z m519 -111 c0 -5 12
-13 28 -16 15 -4 32 -10 37 -14 6 -4 35 -13 65 -20 30 -7 62 -16 70 -20 8 -4
36 -17 63 -30 52 -24 56 -33 27 -70 -15 -20 -21 -23 -31 -12 -7 6 -24 12 -37
12 -20 0 -22 -3 -13 -14 15 -18 -5 -34 -21 -18 -13 13 -58 -5 -58 -23 0 -7 16
-28 35 -48 19 -20 35 -41 35 -47 0 -13 -23 -13 -37 1 -9 9 -16 7 -29 -5 -24
-25 -46 -16 -56 22 -6 24 -17 36 -37 43 -20 7 -27 15 -24 27 2 11 -12 36 -36
64 -23 25 -41 50 -41 54 0 4 -10 19 -22 32 l-23 24 30 23 c17 13 35 28 40 34
13 13 35 14 35 1z m-741 -79 c49 -26 64 -45 63 -82 l-1 -31 90 4 c49 1 89 3
89 2 0 -9 -34 -66 -43 -71 -6 -4 -48 -6 -93 -4 -46 1 -85 -2 -88 -8 -3 -5 12
-25 35 -45 25 -21 39 -41 36 -49 -3 -8 0 -20 6 -26 6 -6 8 -14 4 -18 -4 -4
-13 -1 -19 5 -7 7 -22 12 -34 12 -13 0 -40 16 -61 36 -21 20 -60 50 -88 67
-27 17 -64 43 -82 58 -17 15 -37 29 -45 32 -20 8 38 59 113 101 35 20 68 36
72 36 4 0 25 -9 46 -19z m596 -112 c35 -13 60 -43 49 -61 -4 -6 -30 -9 -65 -6
-49 4 -62 1 -76 -14 -23 -26 -11 -43 68 -95 73 -49 86 -51 117 -23 26 25 27
28 6 51 -22 24 -9 89 17 89 11 0 19 -6 19 -13 0 -7 13 -23 29 -35 27 -20 28
-23 20 -67 -11 -59 -13 -61 -59 -85 -25 -13 -37 -25 -34 -34 8 -22 -15 -30
-35 -12 -10 9 -25 16 -34 16 -8 0 -36 16 -61 35 -26 19 -49 35 -52 35 -2 0
-14 9 -26 20 -12 11 -28 20 -35 20 -16 0 -33 32 -33 62 1 40 26 71 82 100 61
32 61 32 103 17z m-241 -187 c3 -5 34 -23 69 -41 36 -18 81 -50 102 -71 33
-34 36 -41 29 -71 -4 -19 -7 -37 -6 -41 1 -4 -13 -18 -31 -32 -17 -14 -39 -32
-48 -40 -10 -8 -41 -16 -70 -17 -46 -3 -54 -2 -51 13 1 9 -7 22 -20 29 -12 6
-27 16 -32 21 -6 4 -32 25 -58 45 -43 32 -48 40 -48 75 0 44 23 71 87 104 21
10 40 22 41 27 5 10 30 9 36 -1z m-160 -243 c48 -42 48 -89 -1 -140 l-34 -36
50 -37 c55 -41 60 -52 34 -72 -27 -20 -36 -17 -94 29 -30 24 -68 52 -85 63
-74 45 -134 90 -134 100 0 15 47 57 104 93 67 42 113 42 160 0z m2025 -1116
c17 -10 31 -22 31 -26 0 -4 11 -19 25 -33 26 -26 29 -37 27 -87 -2 -24 -6 -27
-31 -25 -15 1 -40 -6 -54 -15 -15 -9 -35 -17 -46 -17 -11 0 -23 -4 -26 -10
-18 -30 -37 5 -26 47 7 25 4 29 -31 45 -61 27 -47 68 35 103 20 8 37 20 37 25
0 15 25 12 59 -7z m-1849 -45 c43 -18 62 -40 54 -62 -8 -21 -22 -20 -60 3 -51
31 -73 35 -95 15 -27 -24 -24 -53 7 -64 34 -13 54 -12 29 2 -29 16 -29 16 -15
33 16 19 39 19 78 -1 39 -19 47 -31 33 -48 -6 -7 -9 -15 -6 -18 12 -11 -28
-32 -76 -39 -53 -8 -71 -1 -136 55 -21 18 -21 20 -7 55 8 20 25 46 36 58 12
13 18 23 14 23 -4 0 -5 4 -2 8 7 12 102 -2 146 -20z m1577 -98 c24 -16 48 -30
52 -30 13 0 71 -56 71 -69 0 -6 -12 -11 -26 -11 -14 0 -34 -5 -45 -10 -13 -8
-25 -7 -39 0 -16 9 -22 8 -26 -5 -4 -9 -18 -15 -35 -15 -26 0 -28 -2 -22 -30
5 -28 -8 -42 -21 -21 -3 4 -29 11 -58 14 -44 4 -57 1 -75 -15 -24 -22 -73 -19
-73 5 0 13 -54 47 -75 47 -8 0 -12 -12 -11 -32 1 -28 -3 -33 -24 -36 -19 -2
-28 4 -38 27 -16 37 -19 128 -5 142 11 11 11 11 101 -35 l53 -28 -6 24 c-8 31
16 52 49 44 24 -6 36 -30 36 -78 0 -17 7 -29 19 -33 33 -10 51 5 51 42 0 20 5
53 12 74 9 31 18 41 42 48 45 13 44 14 93 -19z m-1390 -25 c0 -22 -4 -46 -10
-54 -9 -10 -7 -16 8 -27 29 -22 43 -17 50 19 10 46 37 87 57 87 26 0 37 -28
26 -69 -5 -20 -12 -49 -15 -64 -6 -34 -7 -34 -100 -41 -53 -3 -73 -2 -73 7 0
7 -7 25 -16 42 -16 31 -13 74 8 121 9 19 18 24 37 22 23 -3 26 -8 28 -43z
m288 -24 c36 -10 43 -17 72 -78 31 -62 32 -68 16 -85 -22 -25 -40 -23 -59 7
-18 27 -54 34 -54 10 0 -20 -29 -19 -37 1 -3 8 -12 13 -21 9 -18 -7 -52 3 -52
15 0 5 14 31 30 57 17 26 28 54 25 61 -8 21 4 33 23 23 9 -5 35 -14 57 -20z
m284 -21 c59 0 95 -56 55 -85 -15 -11 -15 -15 6 -44 29 -38 19 -53 -33 -44
-27 4 -41 13 -50 32 -14 30 -32 30 -31 1 0 -13 -6 -20 -18 -20 -11 0 -29 -5
-40 -11 -24 -13 -53 6 -30 20 11 6 18 46 21 118 1 26 59 57 76 42 5 -5 25 -9
44 -9z m289 -17 c-2 -13 -14 -19 -41 -21 -37 -3 -53 -22 -18 -22 21 0 45 -23
34 -33 -3 -4 -16 -7 -28 -7 -41 0 -37 -15 7 -25 52 -13 64 -40 21 -49 -15 -3
-53 -2 -83 2 l-55 7 0 65 c0 99 1 100 90 100 67 0 76 -2 73 -17z"/>
<path d="M1537 3138 c-18 -19 -18 -20 0 -40 10 -11 34 -29 53 -39 19 -11 47
-29 62 -41 26 -20 28 -20 53 -4 14 9 29 24 32 32 6 18 -34 64 -55 64 -8 0 -30
11 -48 25 -39 30 -72 31 -97 3z"/>
<path d="M1922 2147 c-28 -29 -21 -39 69 -100 64 -43 67 -44 92 -28 15 8 29
22 32 30 6 14 -41 71 -58 71 -5 0 -22 11 -39 25 -37 31 -68 32 -96 2z"/>
</g>
</svg>
